<?xml version="1.0" encoding="utf-8"?>
<svg xmlns="http://www.w3.org/2000/svg" viewBox="119.0763 52.25 366.6652 78.94" width="366.6652px" height="78.94px" xmlns:bx="https://boxy-svg.com">
  <defs>
    <style>.cls-1,.cls-3{fill:#93b6fe;}.cls-2{fill:#6d6e6e;}.cls-3{fill-rule:evenodd;}</style>
    <bx:export>
      <bx:file format="svg"/>
    </bx:export>
  </defs>
  <path class="cls-1" d="M345.52,90.2h12.89q-.56-6.4-6-6.41a6.39,6.39,0,0,0-4.73,1.84,7.47,7.47,0,0,0-2.16,4.57m-7.21-11q5.29-5.52,13.94-5.53,9,0,13.57,5.29t4.6,14.25A22.78,22.78,0,0,1,370.1,97H345.52a6.58,6.58,0,0,0,2.72,4.69,10.16,10.16,0,0,0,6.25,1.8,33.32,33.32,0,0,0,13.77-2.73h.8v10.49q-5.44,2.49-14.57,2.48-9.86,0-15.69-5.64T333,93.48Q333,84.68,338.31,79.15Zm-68.56-1q9.84-4.48,18.17-4.49,7.84,0,12.73,4.33A23.92,23.92,0,0,1,314,73.62q14.73,0,14.73,16v23H316.35V89.16A3.83,3.83,0,0,0,315,86a5,5,0,0,0-3.28-1.12,14.36,14.36,0,0,0-6.24,1.76v25.94H293.05V89.16A3.85,3.85,0,0,0,291.69,86a5,5,0,0,0-3.29-1.12,13.7,13.7,0,0,0-6.16,1.52v26.18H269.75Zm-30.62-3.37V98.36a3.57,3.57,0,0,0,1.48,2.92,5.36,5.36,0,0,0,3.41,1.17,17.87,17.87,0,0,0,6.72-1.61V74.74h12.33v39.47c0,5.56-1.66,9.77-5,12.66s-7.78,4.32-13.33,4.32q-9.93,0-15.37-3.2V117.42h1a35.49,35.49,0,0,0,13.53,2.72,7.27,7.27,0,0,0,4.88-1.64,5.93,5.93,0,0,0,1.92-4.77v-2.56a24.9,24.9,0,0,1-6.88,1.76q-7.53,0-12.33-3.6t-4.81-11.45V74.74ZM217.89,52.25v48c0,1.39.5,2.09,1.52,2.09a31.78,31.78,0,0,0,4.08-.24h.4v10.48a20.91,20.91,0,0,1-5.92.72q-12.57,0-12.57-11.68V52.25ZM161.81,78.11q10-4.48,18.57-4.49,18.1,0,18.1,16.1v22.89H186.07V89.24a3.88,3.88,0,0,0-1.44-3.13,5.69,5.69,0,0,0-3.76-1.2,15.72,15.72,0,0,0-6.65,1.52v26.18H161.81Zm-30.37-3.37V98.52a3.33,3.33,0,0,0,1.6,2.81,7,7,0,0,0,4.08,1.12,6.82,6.82,0,0,0,4-1.12,3.36,3.36,0,0,0,1.56-2.81V74.74h12.49v25.62a11.41,11.41,0,0,1-4.88,9.69q-5,3.69-13.21,3.68T124,110.09a11.51,11.51,0,0,1-4.92-9.73V74.74Z" style="fill: rgb(0, 0, 0);" transform="matrix(1, 0, 0, 1, 0, 7.105427357601002e-15)"/>
  <path class="cls-2" d="M454.13,85.3a9.88,9.88,0,0,1,4.09-8.3q4.08-3.07,11.22-3.08a27.52,27.52,0,0,1,14.26,3.6v6.73h-.57a24.85,24.85,0,0,0-13.45-4.16q-4,0-6.05,1.48a4.39,4.39,0,0,0-2,3.65,3.36,3.36,0,0,0,1.56,3,13.72,13.72,0,0,0,4.68,1.6l7.45,1.52a15.94,15.94,0,0,1,7.77,3.57c1.77,1.63,2.65,4,2.65,7.25a10.13,10.13,0,0,1-4.17,8.37q-4.15,3.24-12,3.24a37.26,37.26,0,0,1-7.89-.92,25.38,25.38,0,0,1-7.25-2.6v-6.73h.72a26.89,26.89,0,0,0,14.58,4.17,10.19,10.19,0,0,0,6.21-1.65,4.65,4.65,0,0,0,2.2-3.72c0-2.62-2.39-4.38-7.13-5.37l-7.29-1.52q-9.54-2-9.54-10.09m-35.85,8.57a12.89,12.89,0,0,0,3.53,9.13,11.7,11.7,0,0,0,17.3,0,13.69,13.69,0,0,0,0-18.35,11.75,11.75,0,0,0-17.3,0A13,13,0,0,0,418.28,93.87Zm-7.53,0a19.38,19.38,0,0,1,5.61-14.18,20.32,20.32,0,0,1,28.2,0,19.38,19.38,0,0,1,5.61,14.18,19.31,19.31,0,0,1-5.61,14.1,20.14,20.14,0,0,1-28.16,0A19.39,19.39,0,0,1,410.75,93.87Z" style="fill: rgb(0, 0, 0);" transform="matrix(1, 0, 0, 1, 0, 7.105427357601002e-15)"/>
  <path class="cls-3" d="M389,100.34h6.2v7.19h7.2v6.21h-7.2v7.19H389v-7.19h-7.2v-6.21H389Zm3.1-5.17a15.47,15.47,0,1,1-15.47,15.46A15.46,15.46,0,0,1,392.11,95.17Z" style="fill: rgb(0, 0, 0);" transform="matrix(1, 0, 0, 1, 0, 7.105427357601002e-15)"/>
</svg>